<?xml version="1.0" encoding="UTF-8"?>
<svg id="_Слой_1" data-name="Слой 1" xmlns="http://www.w3.org/2000/svg" viewBox="0 0 746.09 499.47">
  <defs>
    <style>
      .cls-1, .cls-2 {
        fill: #fff;
      }

      .cls-2 {
        fill-rule: evenodd;
      }

      .cls-3 {
        fill: #7a368e;
      }
    </style>
  </defs>
  <rect class="cls-3" width="746.09" height="499.47"/>
  <polygon class="cls-2" points="519.89 81.14 431.29 169.74 437.5 219.48 453.83 185.29 504.34 249.79 575.07 32.18 339.58 130.11 403.31 163.52 519.89 81.14"/>
  <path class="cls-1" d="M442.95,236.58h-93.27c-71.11,10.88-78.5,114.24-.78,128.23h94.04v-93.26c31.35,1.04,37.82,40.15,14.77,54.4,4.66,5.44,23.32,25.65,23.32,25.65,48.96-42.23,20.98-111.65-38.08-115.02Zm-34.17,93.26h-52.07c-32.25,1.94-42.74-51.29-3.11-58.29h55.18v58.29Z"/>
  <path class="cls-2" d="M638.02,283.21h-34.2l-14.77,34.2h43.52c8.74-.39,9.13,12.43,0,13.21h-75.39v-59.06h115.8v-34.97h-17.1c-5.05-72.28-91.51-74.41-114.25-34.97,4.47,3.69,25.65,22.54,25.65,22.54,13.02-20.4,49.16-19.43,54.4,12.44h-98.7v128.23h111.14c25.26-.39,36.92-19.04,39.64-34.97,1.56-25.65-13.99-42.74-35.75-46.63Z"/>
  <path class="cls-2" d="M305.38,236.58h-45.08c-14.38,17.49-39.25,88.21,10.1,141.44,0,0,21.37-18.26,25.65-21.76-15.16-14.77-40.41-75,9.33-119.68Z"/>
  <path class="cls-2" d="M190.64,379.26c0,15.6-12.65,28.25-28.25,28.25s-28.25-12.65-28.25-28.25,12.65-28.26,28.25-28.26,28.25,12.65,28.25,28.26Z"/>
  <path class="cls-2" d="M130.52,236.58c-71.11,10.88-78.5,114.24-.78,128.23h.52c5.52-12.25,17.82-20.79,32.13-20.79s26.62,8.53,32.13,20.79h29.26V236.58h-93.26Zm59.06,93.26h-52.07c-32.25,1.94-42.74-51.29-3.11-58.29h55.18v58.29Z"/>
  <g>
    <path class="cls-2" d="M163.95,206.27c11.45-1.94,17.09-25.45-1.57-30.7h-30.31v44.69h12.43v-13.99l13.99,13.99h19.44l-13.99-13.99Zm-1.48-15.79c0,1.62-1.32,2.94-2.94,2.94h-14.87v-6.21h14.87c1.62,0,2.94,1.32,2.94,2.94v.33Z"/>
    <path class="cls-2" d="M199.58,174.86c-12.51,0-22.65,10.14-22.65,22.65s10.14,22.65,22.65,22.65,22.65-10.14,22.65-22.65-10.14-22.65-22.65-22.65Zm0,32.6c-5.5,0-9.95-4.46-9.95-9.95s4.46-9.95,9.95-9.95,9.95,4.46,9.95,9.95-4.46,9.95-9.95,9.95Z"/>
    <path class="cls-2" d="M328.04,187.73h20.35v-13.13h-17.22c-13.54,0-24.62,10.22-24.62,22.71s11.08,22.71,24.62,22.71h17.22v-13.13h-20.35c-2.99,0-5.65-1.43-7.36-3.63h27.71v-11.92h-27.71c1.71-2.2,4.37-3.63,7.36-3.63Z"/>
    <path class="cls-2" d="M247.14,206.9c-5.13,0-9.33-4.2-9.33-9.33v-.52c0-5.13,4.2-9.33,9.33-9.33h19.34v-13.13h-17.35c-13.54,0-24.62,10.22-24.62,22.71s11.08,22.71,24.62,22.71h17.35v-13.13h-19.34Z"/>
    <polygon class="cls-2" points="395.67 175.47 351.8 175.47 351.8 187.21 367.86 187.21 367.86 219.34 379.61 219.34 379.61 187.21 395.67 187.21 395.67 175.47"/>
    <polygon class="cls-1" points="291.26 197.23 312.85 175.47 295.38 175.47 283.24 187.71 283.24 175.47 271.49 175.47 271.49 219.34 283.24 219.34 283.24 206.76 295.72 219.34 313.19 219.34 291.26 197.23"/>
  </g>
  <g>
    <path class="cls-1" d="M467.89,386.56c-1.94,.39-3.65,1.6-5.12,3.66-1.42,1.95-2.12,3.92-2.12,5.93,0,1.2,.25,2.37,.75,3.5,.63,1.44,1.48,2.15,2.56,2.15,.55,0,1.26-.29,2.13-.89l1.22,3.26c-1.1,.66-2.17,1-3.22,1-1.41,0-2.77-.52-4.08-1.57-.76-.61-1.48-1.78-2.16-3.49-.34-.84-.51-2.11-.51-3.8v-1.19c0-2.66,1.41-5.65,4.24-8.98,.6-.69,1.61-1.66,3.02-2.92h4.43v3.23c-.42,.05-.8,.09-1.14,.12Z"/>
    <path class="cls-1" d="M487.53,386.45v18.46h-3.69v-2.38c0-.82-.62-1.87-1.88-3.15-.94-.97-1.93-1.82-2.97-2.54-1.15-.79-2.4-1.19-3.75-1.19s-2.38,.59-3.01,1.78c-.08,.13-.12,.29-.12,.5,0,.49,.24,.93,.72,1.33,.48,.4,.97,.6,1.47,.6,.39,0,1.33-.29,2.81-.86l1.09,3.36c-1.65,.84-3.02,1.26-4.12,1.26-1.23,0-2.36-.34-3.37-1.03-1.02-.69-1.77-1.59-2.24-2.72-.21-.48-.31-1.08-.31-1.8,0-2.09,.86-3.69,2.59-4.78,1.2-.79,2.49-1.19,3.85-1.19h.35c-.03-.65-.37-1.37-1.02-2.17-.66-.8-1.3-1.2-1.92-1.2h-4.09v-2.27h-1.65v-3.24h23.77v3.24h-2.52Zm-3.69,0h-8.69c2.45,1.59,3.73,3.67,3.84,6.24,1.56,.62,3.18,1.84,4.85,3.66v-9.9Z"/>
    <path class="cls-1" d="M494.71,386.45v18.46h-3.69v-18.46h-2.72v-3.24h8.87v3.24h-2.46Z"/>
    <path class="cls-1" d="M512.52,386.45h-16.63v-3.24h23.02v3.24h-2.56v18.46h-3.26c-.31-.94-1.91-2.41-4.79-4.4-1.18-.82-2.8-1.61-4.87-2.37-2.2-.82-3.96-1.23-5.26-1.23l-.98-3.68c.86-.69,3.24-1.88,7.14-3.56,1.65-.72,4.38-1.79,8.2-3.22Zm.21,3.99c-.68,.23-1.42,.5-2.21,.81-1.16,.51-3.26,1.43-6.31,2.76l-.71,.31c2.92,1.02,5.71,2.53,8.36,4.53,.34,.26,.63,.47,.87,.65v-9.05Z"/>
    <path class="cls-1" d="M523.54,386.45v18.46h-3.69v-18.46h-2.72v-3.24h8.87v3.24h-2.46Z"/>
    <path class="cls-1" d="M524.71,386.45v-3.24h10.9c.03-.13,.04-.22,.04-.27,0-1.69-.8-2.81-2.39-3.34-.21-.05-.45-.08-.71-.08-.39,0-.88,.08-1.45,.23-.78,.21-1.25,.33-1.41,.35-.63,.1-1.18,.3-1.65,.58-.6,.42-1.3,.79-2.08,1.13l-1.18-2.74c1.41-.98,3.27-1.81,5.57-2.5,.97-.28,1.88-.42,2.74-.42,.92,0,1.95,.33,3.1,1,1.96,1.18,2.98,3.2,3.06,6.06h2.12v3.24h-16.67Zm12.83,21.57c-1.49-1.35-3.09-2.61-4.78-3.79-.81-.56-2.16-1.19-4.04-1.87-1.49-.54-2.37-.8-2.63-.8l.04-4.32c.31,0,.79,.02,1.43,.06,.64,.04,1.12,.06,1.43,.06,1.67,0,3.03-.22,4.08-.64,1.99-.83,2.98-1.82,2.98-2.95,0-.83-.38-1.52-1.14-2.08-.73-.43-1.48-.84-2.24-1.25-.21-.1-.42-.15-.63-.15-.45,0-.93,.11-1.45,.34-.65,.3-.95,.64-.9,1.02,.13,.96,1.14,1.36,3.02,1.21l-2,3.06c-.81,.05-1.63-.2-2.47-.77-1.52-1.02-2.28-2.27-2.28-3.75s.77-2.63,2.31-3.45c1.25-.69,2.69-1.04,4.32-1.04,.71,0,1.31,.12,1.82,.35,.51,.23,1.03,.48,1.55,.77,2.51,1.27,3.77,3.21,3.77,5.81,0,1.86-.77,3.37-2.31,4.51-1.18,.87-2.86,1.49-5.06,1.88,.65,.31,1.59,.83,2.82,1.57,2.09,1.58,3.78,3,5.06,4.25l-2.71,1.99Z"/>
    <path class="cls-1" d="M563.46,386.45v18.46h-3.69v-7.32c0-.64-.27-1.29-.82-1.96-.55-.67-1.14-1.01-1.76-1.01-.57,0-1.12,.35-1.64,1.06-.52,.71-.78,1.52-.78,2.43h-3.99c0-1.02-.26-1.9-.79-2.64-.53-.74-1.13-1.11-1.81-1.11-.58,0-1.13,.21-1.66,.61-.53,.41-.81,.88-.87,1.42l-.12,.96v.38c0,1.89,1.16,2.84,3.48,2.84,.36,0,.99-.08,1.88-.23l-1.29,3.73c-.76,.09-1.22,.13-1.37,.13-1.73,0-3.32-.64-4.79-1.92-.57-.49-1.04-1.23-1.41-2.23-.34-.89-.51-1.77-.51-2.61,0-1.99,.61-3.61,1.84-4.85,1.23-1.24,2.84-1.86,4.83-1.86,1.86,0,3.42,.88,4.67,2.65,1.36-1.77,2.83-2.65,4.4-2.65,.86,0,1.7,.39,2.51,1.18v-5.45h-19.95v-3.24h25.73v3.24h-2.09Z"/>
    <path class="cls-1" d="M591.15,386.45h-16.63v-3.24h23.02v3.24h-2.56v18.46h-3.26c-.31-.94-1.91-2.41-4.79-4.4-1.18-.82-2.8-1.61-4.87-2.37-2.2-.82-3.96-1.23-5.26-1.23l-.98-3.68c.86-.69,3.24-1.88,7.14-3.56,1.65-.72,4.38-1.79,8.2-3.22Zm.21,3.99c-.68,.23-1.42,.5-2.21,.81-1.16,.51-3.26,1.43-6.31,2.76l-.71,.31c2.92,1.02,5.71,2.53,8.36,4.53,.34,.26,.63,.47,.87,.65v-9.05Z"/>
    <path class="cls-1" d="M603.73,386.45c-1.17,1.62-1.75,2.95-1.75,4,0,.49,.59,2.44,1.79,5.84,.62,1.72,.93,3.14,.93,4.27,0,2.15-1.2,3.65-3.61,4.5-.73,.28-2.04,.51-3.92,.69l.5-3.19c2.18-.46,3.27-1.23,3.27-2.31,0-1-.45-2.54-1.36-4.61-.91-2.08-1.36-3.6-1.36-4.57,0-1.26,.52-2.79,1.58-4.61h-3.84v-3.24h10.3v3.24h-2.52Z"/>
    <path class="cls-1" d="M611.62,386.45v18.46h-3.69v-18.46h-2.72v-3.24h8.87v3.24h-2.46Z"/>
    <path class="cls-1" d="M620.14,395.19c-1.73,0-3.11-.54-4.16-1.63-1.05-1.09-1.57-2.49-1.57-4.2,0-1.58,.53-2.91,1.61-3.97,1.07-1.06,2.41-1.59,4-1.59,2.17,0,3.74,1.09,4.71,3.26,.42,.92,.63,1.83,.63,2.72,0,1.66-.45,2.98-1.35,3.96-.9,.97-2.19,1.46-3.86,1.46Zm4.04,11.9c-4.68-3.94-7.86-6.31-9.53-7.1l.04-5.1c6.43,4.6,10.64,8.27,12.63,11.01v3.8l-3.14-2.61Zm-3.27-19.41c-.37-.25-.74-.36-1.1-.31-1.4,.23-2.09,.92-2.09,2.07,0,.59,.23,1.13,.69,1.63,.46,.5,.98,.75,1.56,.75l.51-.08c1.05-.33,1.58-.97,1.58-1.92,0-.89-.38-1.61-1.14-2.15Z"/>
    <path class="cls-1" d="M650.53,381.05c-4.3-2.7-7.82-4.06-10.56-4.06-3.23,0-5.61,1.03-7.12,3.07-.52,.72-.81,1.77-.86,3.15h2.59v3.24h-2.59v18.46h-3.76v-18.46h-2.46v-3.24h2.46c.08-2.62,.94-4.75,2.59-6.38,1.65-1.63,3.88-2.64,6.71-3.02,.29-.03,.84-.09,1.65-.19h.78c2.25,0,4.49,.49,6.71,1.46,1.2,.56,3.18,1.68,5.92,3.37l-2.07,2.6Z"/>
    <path class="cls-1" d="M647.47,386.45v.12c1.54,.08,3.15,.56,4.82,1.46,2.35,1.28,3.53,3.03,3.53,5.23,0,1.28-.39,2.39-1.18,3.33-.79,.94-1.82,1.55-3.09,1.85-1.27,.29-2.35,.34-3.25,.14v-3.49c.42,.05,.81,.08,1.17,.08,1.85,0,2.78-.66,2.78-1.99,0-1.59-1.6-2.58-4.79-2.99v14.73h-3.26c-.52-1.02-1.05-1.81-1.57-2.37-.18-.2-.65-.82-1.41-1.84-.24-.33-.67-.75-1.3-1.26-.63-.51-1.06-.93-1.3-1.26-.11-.15-.39-.32-.86-.5-1.6-.56-2.89-.84-3.89-.84l-.98-3.68c.82-.59,2.65-1.68,5.5-3.29,.21-.15,1.08-.66,2.61-1.53,.55-.33,1.47-.87,2.77-1.61v-.27h-11.66v-3.24h25.34v3.24h-9.99Zm-3.69,4.26c-.6,.46-1.52,1.07-2.75,1.84-.31,.13-.67,.39-1.08,.79-.41,.4-.79,.76-1.16,1.09,.39,.36,1.02,.86,1.89,1.5,.81,.92,1.85,2.06,3.1,3.41v-8.63Z"/>
    <path class="cls-1" d="M662.97,395.19c-1.73,0-3.11-.54-4.16-1.63-1.05-1.09-1.57-2.49-1.57-4.2,0-1.58,.54-2.91,1.61-3.97,1.07-1.06,2.41-1.59,4-1.59,2.17,0,3.74,1.09,4.71,3.26,.42,.92,.63,1.83,.63,2.72,0,1.66-.45,2.98-1.35,3.96-.9,.97-2.19,1.46-3.86,1.46Zm4.04,11.9c-4.68-3.94-7.86-6.31-9.53-7.1l.04-5.1c6.43,4.6,10.64,8.27,12.63,11.01v3.8l-3.14-2.61Zm-3.27-19.41c-.37-.25-.74-.36-1.11-.31-1.39,.23-2.09,.92-2.09,2.07,0,.59,.23,1.13,.69,1.63,.46,.5,.98,.75,1.56,.75l.51-.08c1.05-.33,1.58-.97,1.58-1.92,0-.89-.38-1.61-1.14-2.15Z"/>
  </g>
  <g>
    <polygon class="cls-1" points="254.9 406.49 261.77 408.81 264.52 406.49 257.65 404.08 254.9 406.49"/>
    <path class="cls-1" d="M257.19,387.4v-4.16h-54.01v4.16h9.08v9.3h7.79s2.22-.72,2.75-1.84v3.67c0,1.63-1.22,3.06-2.75,3.06h-11.46c-.69,0-1.38-.31-1.38-3.06v-8.67h-4.04v11.12c0,.92,.58,4.16,3.48,4.16h15.53c2.42-.08,4.14-2.54,4.27-4.62v-10.66h-3.67c-.38,1.63-.15,2.75-1.83,3.16h-4.58v-5.63h13.29v17.74h4.59v-17.74h3.21v17.74h15.13c1.07,0,4.59-.9,4.59-4.77v-10.5h-3.67c0,1.02-.15,2.55-1.83,2.55h-10.09v-5.02h15.59Zm-5.96,8.69c.69,.2,1.6-.92,2.29-1.83v4.28c0,1.63-1.3,3.06-2.29,3.06h-9.63v-5.51h9.63Z"/>
    <rect class="cls-1" x="262.23" y="392.42" width="9.17" height="4.89"/>
    <path class="cls-1" d="M276.47,383.24v4.16h15.11v2.47h-15.11v9.89c.33,3.22,1.98,5.39,5.11,5.39h13.66v-17.74h3.21v17.74h4.12v-21.91h-26.11Zm15.11,18.97h-9.17c-1.38-.2-2.29-1.83-2.29-3.67v-4.9h11.46v8.57Z"/>
    <path class="cls-1" d="M322.38,387.4h18.71v2.47h-5.5c-.23,1.73-3.06,2.67-3.67,0h-9.54v10.5c0,1.02,.16,4.35,2.96,4.77h7.5v-3.55h-5.04c-.99-.31-1.83-.92-1.83-2.45v-5.51h5.04v3.06h4.58v-2.45c-.31-1.12,4.81-1.02,5.04,0v10.89h4.12v-17.74h2.75v17.74h4.13v-21.91h-29.25v4.16Z"/>
    <path class="cls-1" d="M315.87,384.46h-9.74v5.75c.38,1.84,1.36,4.1,4.7,4.28h7.79v-7.1c-.23-1.2-1.07-2.74-2.75-2.94Zm-2.97,6.14c-1.76,0-3.18-.64-3.18-1.44s1.43-1.43,3.18-1.43,3.18,.64,3.18,1.43-1.42,1.44-3.18,1.44Z"/>
    <polygon class="cls-1" points="306.78 396.65 306.78 400.26 318.56 405.15 318.56 401.33 306.78 396.65"/>
    <path class="cls-1" d="M414.65,384.46h-9.74v5.75c.38,1.84,1.36,4.1,4.7,4.28h7.8v-7.1c-.23-1.2-1.07-2.74-2.75-2.94Zm-2.97,6.14c-1.76,0-3.19-.64-3.19-1.44s1.43-1.43,3.19-1.43,3.18,.64,3.18,1.43-1.43,1.44-3.18,1.44Z"/>
    <polygon class="cls-1" points="405.55 396.65 405.55 400.26 417.33 405.15 417.33 401.33 405.55 396.65"/>
    <path class="cls-1" d="M439.66,389.87v-2.47h7.6v-4.16h-26.37v4.16h15.1v2.47h-15.1v9.89c.33,3.22,1.98,5.39,5.11,5.39h13.66v-10.89h3.66c.61,0,.77-.31,.92,.61v1.84c-.23,.92-.31,1.53-.92,1.83h-1.35v3.67h2.73c.92-.1,2.6-1.12,2.75-2.45v-9.89h-7.79Zm-3.67,12.34h-9.17c-1.38-.2-2.29-1.83-2.29-3.67v-4.9h11.39l.06,.61h0v7.95Z"/>
    <path class="cls-1" d="M363.98,383.24v4.16h15.1v2.47h-15.1v9.89c.33,3.22,1.98,5.39,5.11,5.39h13.66v-17.74h4.78l-1.74,3.48v2.45h3.21c1.71,.2,2.29,1.32,2.29,4.28,0,2.04-.47,3.51-2.05,3.67h-2.99v3.67h3.21c.92,0,5.12,.41,5.5-3.67,.46-8.26,.84-10.4-5.04-11.02l.86-2.87h6.46v17.74h4.12v-21.91h-37.38Zm15.1,18.97h-9.17c-1.37-.2-2.29-1.83-2.29-3.67v-4.9h11.46v8.57Z"/>
  </g>
</svg>